<svg width="682" height="682" viewBox="0 0 682 682" fill="none" xmlns="http://www.w3.org/2000/svg">
<path opacity="0.2" d="M117.985 84.2629C184.87 26.1699 271.798 -3.50703 360.245 1.55597C448.692 6.61997 531.664 46.0229 591.483 111.37C651.301 176.718 683.235 262.842 680.48 351.391C677.726 439.939 640.5 523.912 576.735 585.414C512.97 646.917 427.708 681.086 339.117 680.641C250.527 680.197 165.612 645.174 102.468 583.035C39.3233 520.896 2.9417 436.554 1.0755 347.982C-0.790801 259.41 32.0063 173.61 92.4773 108.867" stroke="white" stroke-width="1.19867"/>
<path d="M110.687 93.5816C109.031 89.971 104.762 88.3861 101.152 90.0416C97.5412 91.6971 95.9563 95.9661 97.6118 99.5767C99.2673 103.187 103.536 104.772 107.147 103.117C110.758 101.461 112.342 97.1922 110.687 93.5816Z" fill="white"/>
</svg>
